<svg width="1600" height="480" viewBox="0 0 1600 480" xmlns="http://www.w3.org/2000/svg">
  <rect width="1600" height="480" fill="#F4F1EA"/>
  <rect x="96" y="96" width="1408" height="288" rx="20" fill="#111111"/>
  <rect x="128" y="128" width="544" height="224" rx="12" fill="#171717" stroke="#2B2B2B"/>
  <rect x="704" y="128" width="768" height="224" rx="12" fill="#171717" stroke="#2B2B2B"/>
  <text x="160" y="195" fill="#F4F1EA" font-family="monospace" font-size="40">CLAGG</text>
  <text x="160" y="236" fill="#8ED1C2" font-family="monospace" font-size="20">systems / research / docs / execution</text>
  <g>
    <rect x="160" y="276" width="22" height="22" fill="#D94C3D"/>
    <rect x="188" y="276" width="22" height="22" fill="#D94C3D"/>
    <rect x="216" y="276" width="22" height="22" fill="#D94C3D"/>
    <rect x="244" y="276" width="22" height="22" fill="#D94C3D"/>
    <rect x="272" y="276" width="22" height="22" fill="#D94C3D"/>
    <rect x="300" y="276" width="22" height="22" fill="#D94C3D"/>
    <rect x="328" y="276" width="22" height="22" fill="#D94C3D"/>
    <rect x="356" y="276" width="22" height="22" fill="#D94C3D"/>
    <rect x="384" y="276" width="22" height="22" fill="#D94C3D"/>
    <rect x="412" y="276" width="22" height="22" fill="#D94C3D"/>
    <rect x="440" y="276" width="22" height="22" fill="#D94C3D"/>
    <rect x="468" y="276" width="22" height="22" fill="#D94C3D"/>
    <rect x="496" y="276" width="22" height="22" fill="#D94C3D"/>
    <rect x="524" y="276" width="22" height="22" fill="#D94C3D"/>
    <rect x="552" y="276" width="22" height="22" fill="#D94C3D"/>
    <rect x="580" y="276" width="22" height="22" fill="#D94C3D"/>
    <rect x="608" y="276" width="22" height="22" fill="#D94C3D"/>
    <rect x="636" y="276" width="22" height="22" fill="#D94C3D"/>
  </g>
  <text x="752" y="182" fill="#F4F1EA" font-family="sans-serif" font-size="26">A working identity for systems, documentation, research,</text>
  <text x="752" y="216" fill="#F4F1EA" font-family="sans-serif" font-size="26">and the connective tissue between them.</text>
  <text x="752" y="274" fill="#BDB7AE" font-family="monospace" font-size="18">OBSERVE → ORGANIZE → DECIDE → SHIP</text>
  <text x="752" y="322" fill="#8ED1C2" font-family="monospace" font-size="18">clear &gt; impressive · specific &gt; expansive · calm &gt; noisy</text>
</svg>
